<?xml version="1.0" standalone="no"?>
<!DOCTYPE svg PUBLIC "-//W3C//DTD SVG 20010904//EN"
 "http://www.w3.org/TR/2001/REC-SVG-20010904/DTD/svg10.dtd">
<svg version="1.0" xmlns="http://www.w3.org/2000/svg"
 width="200.000000pt" height="200.000000pt" viewBox="0 0 200.000000 200.000000"
 preserveAspectRatio="xMidYMid meet">
<metadata>
Created by potrace 1.14, written by Peter Selinger 2001-2017
</metadata>
<g transform="translate(0.000000,200.000000) scale(0.100000,-0.100000)"
fill="#000000" stroke="none">
<path d="M603 1584 c-26 -26 -34 -103 -10 -105 6 0 198 -1 425 -2 266 -1 416
2 421 8 9 11 7 50 -3 81 -13 40 -44 43 -435 43 l-374 -1 -24 -24z"/>
<path d="M581 1430 c-7 -4 -66 -92 -96 -142 -5 -9 -36 -59 -67 -110 -60 -97
-64 -117 -33 -164 54 -83 208 -60 232 35 6 23 6 23 17 -10 26 -80 143 -105
206 -44 17 16 33 37 36 48 6 18 8 17 20 -11 24 -59 103 -87 170 -62 30 12 49
32 65 70 l11 25 9 -24 c12 -32 54 -69 85 -77 62 -16 134 19 155 75 l10 24 17
-34 c23 -46 74 -71 132 -66 35 4 51 13 77 41 21 23 33 46 33 64 0 19 -34 82
-101 188 -56 87 -105 163 -110 169 -10 10 -853 15 -868 5z"/>
<path d="M857 937 c-16 -11 -18 -36 -19 -225 0 -117 -4 -215 -9 -218 -5 -3
-63 -6 -129 -7 l-120 -2 0 221 0 222 -37 -13 c-21 -7 -50 -11 -65 -9 l-28 3 0
-209 c0 -200 -1 -209 -20 -215 -15 -5 -20 -15 -20 -40 0 -19 5 -37 12 -41 6
-4 274 -7 596 -7 629 0 601 -3 602 51 0 14 -9 26 -24 34 l-25 11 0 191 c0 105
0 198 0 206 -1 12 -13 16 -45 17 -25 1 -54 6 -64 12 -19 10 -20 7 -20 -107 0
-64 -1 -125 -1 -134 -1 -17 -19 -18 -236 -18 l-235 0 0 123 0 123 -44 22 c-51
26 -48 25 -69 9z"/>
<path d="M654 740 c-44 -17 -36 -80 10 -80 31 0 50 24 42 54 -7 28 -23 36 -52
26z"/>
</g>
</svg>
